<svg xmlns="http://www.w3.org/2000/svg" xmlns:xlink="http://www.w3.org/1999/xlink" width="1422" zoomAndPan="magnify" viewBox="40 198 1422 1084" height="1084" preserveAspectRatio="xMidYMid meet" version="1.0"><defs><g/><clipPath id="2df3669526"><path d="M 46.542969 201 L 1453.542969 201 L 1453.542969 667.554688 L 46.542969 667.554688 Z M 46.542969 201 " clip-rule="nonzero"/></clipPath><clipPath id="9aca9f5f1f"><rect x="0" width="962" y="0" height="1243"/></clipPath></defs><g clip-path="url(#2df3669526)"><path fill="#00b6a6" d="M 319.476562 475.667969 L 46.957031 475.667969 L 50.398438 532.769531 L 129.402344 532.769531 C 207.269531 532.769531 257.644531 596.675781 280.519531 667.460938 L 342.390625 667.460938 L 396.207031 532.769531 L 1103.820312 532.769531 L 1157.636719 667.460938 L 1220.605469 667.460938 C 1240.042969 602.382812 1292.726562 532.769531 1364.882812 532.769531 L 1450.730469 532.769531 L 1453.035156 475.667969 L 414.511719 475.667969 C 471.769531 343.246094 602.316406 254.230469 749.996094 254.230469 C 883.949219 254.230469 1004.171875 327.285156 1068.308594 440.3125 L 1133.585938 440.3125 C 1069.445312 306.714844 936.628906 213.164062 783.203125 202.839844 C 596.570312 189.152344 423.664062 301.003906 357.257812 475.667969 L 325.1875 557.878906 L 310.324219 594.40625 C 301.175781 578.410156 289.675781 563.589844 278.253906 551.03125 C 272.542969 544.1875 266.796875 538.480469 261.085938 532.769531 L 296.558594 532.769531 Z M 1189.671875 594.40625 L 1164.484375 532.769531 L 1240.042969 532.769531 C 1233.199219 538.480469 1227.449219 544.191406 1221.742188 551.03125 C 1210.28125 563.589844 1198.859375 578.410156 1189.671875 594.40625 Z M 1189.671875 594.40625 " fill-opacity="1" fill-rule="evenodd"/></g><g transform="matrix(1, 0, 0, 1, 152, 257)"><g clip-path="url(#9aca9f5f1f)"><g fill="#00b6a6" fill-opacity="1"><g transform="translate(0.869224, 1018.549629)"><g><path d="M 246.09375 -755.546875 L 451.171875 -755.546875 L 389.65625 -464.125 L 699.421875 -755.546875 L 954.15625 -755.546875 L 601.203125 -426.34375 L 792.25 0 L 561.265625 0 L 437.140625 -274.15625 L 328.125 -174.859375 L 291.421875 0 L 86.34375 0 Z M 246.09375 -755.546875 "/></g></g></g></g></g></svg>