<svg xmlns="http://www.w3.org/2000/svg" xmlns:xlink="http://www.w3.org/1999/xlink" width="1390" zoomAndPan="magnify" viewBox="50 505 1390 315" height="315" preserveAspectRatio="xMidYMid meet" version="1.0"><defs><g/><clipPath id="dcee477ddd"><rect x="0" width="1378" y="0" height="402"/></clipPath><clipPath id="7838d0dc65"><path d="M 795.785156 509 L 1247.285156 509 L 1247.285156 659.457031 L 795.785156 659.457031 Z M 795.785156 509 " clip-rule="nonzero"/></clipPath></defs><g transform="matrix(1, 0, 0, 1, 57, 517)"><g clip-path="url(#dcee477ddd)"><g fill="#00b6a6" fill-opacity="1"><g transform="translate(0.225918, 295.456623)"><g><path d="M 71.234375 -218.6875 L 130.578125 -218.6875 L 112.78125 -134.328125 L 202.4375 -218.6875 L 276.171875 -218.6875 L 174.015625 -123.40625 L 229.3125 0 L 162.453125 0 L 126.53125 -79.34375 L 94.96875 -50.609375 L 84.34375 0 L 25 0 Z M 71.234375 -218.6875 "/></g></g></g><g fill="#00b6a6" fill-opacity="1"><g transform="translate(201.062422, 295.456623)"><g><path d="M 60.921875 3.125 C 54.253906 3.125 48.265625 1.976562 42.953125 -0.3125 C 37.640625 -2.601562 33.109375 -5.675781 29.359375 -9.53125 C 25.617188 -13.382812 22.707031 -17.804688 20.625 -22.796875 C 18.539062 -27.796875 17.5 -32.898438 17.5 -38.109375 C 17.5 -45.609375 18.851562 -52.273438 21.5625 -58.109375 C 24.269531 -63.941406 28.066406 -68.9375 32.953125 -73.09375 C 37.847656 -77.257812 43.734375 -80.75 50.609375 -83.5625 C 57.484375 -86.375 65.085938 -88.613281 73.421875 -90.28125 L 121.21875 -99.96875 C 118.71875 -111.21875 110.59375 -116.84375 96.84375 -116.84375 C 92.46875 -116.84375 88.507812 -116.21875 84.96875 -114.96875 C 81.425781 -113.71875 78.304688 -112.257812 75.609375 -110.59375 C 72.484375 -108.71875 69.671875 -106.632812 67.171875 -104.34375 L 44.984375 -133.390625 C 49.984375 -137.554688 55.710938 -141.304688 62.171875 -144.640625 C 67.585938 -147.554688 73.988281 -150.210938 81.375 -152.609375 C 88.769531 -155.003906 97.050781 -156.203125 106.21875 -156.203125 C 116.425781 -156.203125 125.640625 -154.742188 133.859375 -151.828125 C 142.085938 -148.910156 149.117188 -144.847656 154.953125 -139.640625 C 160.785156 -134.429688 165.265625 -128.390625 168.390625 -121.515625 C 171.515625 -114.648438 173.078125 -107.15625 173.078125 -99.03125 C 173.078125 -95.695312 172.867188 -93.09375 172.453125 -91.21875 C 172.035156 -89.34375 171.722656 -87.882812 171.515625 -86.84375 L 153.078125 0 L 99.96875 0 L 103.71875 -18.75 L 102.15625 -18.75 C 99.445312 -14.582031 96.113281 -10.9375 92.15625 -7.8125 C 88.613281 -4.894531 84.289062 -2.34375 79.1875 -0.15625 C 74.09375 2.03125 68.003906 3.125 60.921875 3.125 Z M 87.15625 -37.484375 C 93.820312 -37.484375 99.5 -39.722656 104.1875 -44.203125 C 108.875 -48.679688 111.84375 -54.566406 113.09375 -61.859375 L 114.34375 -68.734375 L 89.96875 -63.734375 C 85.175781 -62.691406 81.375 -60.921875 78.5625 -58.421875 C 75.757812 -55.921875 74.359375 -52.585938 74.359375 -48.421875 C 74.359375 -45.085938 75.445312 -42.429688 77.625 -40.453125 C 79.8125 -38.472656 82.988281 -37.484375 87.15625 -37.484375 Z M 87.15625 -37.484375 "/></g></g></g><g fill="#00b6a6" fill-opacity="1"><g transform="translate(345.67631, 295.456623)"><g><path d="M 66.546875 -218.6875 L 119.65625 -218.6875 L 94.96875 -101.53125 L 151.203125 -153.078125 L 218.6875 -153.078125 L 142.140625 -84.34375 L 180.578125 0 L 123.40625 0 L 100.59375 -53.109375 L 80.28125 -33.109375 L 73.421875 0 L 20.3125 0 Z M 66.546875 -218.6875 "/></g></g></g><g fill="#00b6a6" fill-opacity="1"><g transform="translate(499.660231, 295.456623)"><g><path d="M 104.65625 3.125 C 92.78125 3.125 82.050781 1.144531 72.46875 -2.8125 C 62.894531 -6.769531 54.671875 -12.179688 47.796875 -19.046875 C 40.921875 -25.921875 35.660156 -33.890625 32.015625 -42.953125 C 28.367188 -52.015625 26.546875 -61.648438 26.546875 -71.859375 C 26.546875 -83.304688 28.835938 -94.1875 33.421875 -104.5 C 38.003906 -114.8125 44.359375 -123.765625 52.484375 -131.359375 C 60.609375 -138.960938 70.1875 -145.003906 81.21875 -149.484375 C 92.257812 -153.960938 104.238281 -156.203125 117.15625 -156.203125 C 127.769531 -156.203125 137.453125 -154.378906 146.203125 -150.734375 C 154.953125 -147.085938 162.453125 -142.035156 168.703125 -135.578125 C 174.953125 -129.128906 179.789062 -121.632812 183.21875 -113.09375 C 186.65625 -104.550781 188.375 -95.488281 188.375 -85.90625 C 188.375 -81.113281 187.957031 -76.53125 187.125 -72.15625 C 186.289062 -67.789062 185.351562 -64.046875 184.3125 -60.921875 L 79.03125 -60.921875 C 79.445312 -58.421875 80.488281 -55.867188 82.15625 -53.265625 C 83.820312 -50.660156 86.113281 -48.316406 89.03125 -46.234375 C 91.945312 -44.148438 95.488281 -42.429688 99.65625 -41.078125 C 103.820312 -39.722656 108.613281 -39.046875 114.03125 -39.046875 C 118.820312 -39.046875 123.347656 -39.566406 127.609375 -40.609375 C 131.878906 -41.648438 135.472656 -42.796875 138.390625 -44.046875 C 141.929688 -45.503906 145.054688 -47.171875 147.765625 -49.046875 L 160.890625 -11.875 C 156.304688 -9.164062 151.203125 -6.664062 145.578125 -4.375 C 140.785156 -2.5 134.953125 -0.78125 128.078125 0.78125 C 121.210938 2.34375 113.40625 3.125 104.65625 3.125 Z M 137.453125 -93.71875 C 136.828125 -99.132812 134.328125 -103.875 129.953125 -107.9375 C 125.585938 -112 119.757812 -114.03125 112.46875 -114.03125 C 106.21875 -114.03125 100.175781 -112.207031 94.34375 -108.5625 C 88.507812 -104.914062 84.757812 -99.96875 83.09375 -93.71875 Z M 137.453125 -93.71875 "/></g></g></g><g fill="#00b6a6" fill-opacity="1"><g transform="translate(656.768134, 295.456623)"><g><path d="M 66.546875 -218.6875 L 119.65625 -218.6875 L 101.84375 -132.765625 L 103.40625 -132.765625 C 106.53125 -136.929688 110.175781 -140.785156 114.34375 -144.328125 C 117.882812 -147.242188 122.359375 -149.953125 127.765625 -152.453125 C 133.179688 -154.953125 139.429688 -156.203125 146.515625 -156.203125 C 160.679688 -156.203125 172.1875 -151.773438 181.03125 -142.921875 C 189.882812 -134.078125 194.3125 -121.84375 194.3125 -106.21875 C 194.3125 -103.09375 194.101562 -99.914062 193.6875 -96.6875 C 193.269531 -93.457031 192.644531 -90.070312 191.8125 -86.53125 L 173.390625 0 L 120.28125 0 L 137.140625 -79.03125 C 137.554688 -80.695312 137.765625 -82.988281 137.765625 -85.90625 C 137.765625 -91.320312 136.148438 -96.0625 132.921875 -100.125 C 129.703125 -104.1875 124.863281 -106.21875 118.40625 -106.21875 C 111.945312 -106.21875 106.113281 -103.976562 100.90625 -99.5 C 95.695312 -95.019531 92.257812 -88.820312 90.59375 -80.90625 L 73.421875 0 L 20.3125 0 Z M 66.546875 -218.6875 "/></g></g></g><g fill="#00b6a6" fill-opacity="1"><g transform="translate(823.246523, 295.456623)"><g><path d="M 60.921875 3.125 C 54.253906 3.125 48.265625 1.976562 42.953125 -0.3125 C 37.640625 -2.601562 33.109375 -5.675781 29.359375 -9.53125 C 25.617188 -13.382812 22.707031 -17.804688 20.625 -22.796875 C 18.539062 -27.796875 17.5 -32.898438 17.5 -38.109375 C 17.5 -45.609375 18.851562 -52.273438 21.5625 -58.109375 C 24.269531 -63.941406 28.066406 -68.9375 32.953125 -73.09375 C 37.847656 -77.257812 43.734375 -80.75 50.609375 -83.5625 C 57.484375 -86.375 65.085938 -88.613281 73.421875 -90.28125 L 121.21875 -99.96875 C 118.71875 -111.21875 110.59375 -116.84375 96.84375 -116.84375 C 92.46875 -116.84375 88.507812 -116.21875 84.96875 -114.96875 C 81.425781 -113.71875 78.304688 -112.257812 75.609375 -110.59375 C 72.484375 -108.71875 69.671875 -106.632812 67.171875 -104.34375 L 44.984375 -133.390625 C 49.984375 -137.554688 55.710938 -141.304688 62.171875 -144.640625 C 67.585938 -147.554688 73.988281 -150.210938 81.375 -152.609375 C 88.769531 -155.003906 97.050781 -156.203125 106.21875 -156.203125 C 116.425781 -156.203125 125.640625 -154.742188 133.859375 -151.828125 C 142.085938 -148.910156 149.117188 -144.847656 154.953125 -139.640625 C 160.785156 -134.429688 165.265625 -128.390625 168.390625 -121.515625 C 171.515625 -114.648438 173.078125 -107.15625 173.078125 -99.03125 C 173.078125 -95.695312 172.867188 -93.09375 172.453125 -91.21875 C 172.035156 -89.34375 171.722656 -87.882812 171.515625 -86.84375 L 153.078125 0 L 99.96875 0 L 103.71875 -18.75 L 102.15625 -18.75 C 99.445312 -14.582031 96.113281 -10.9375 92.15625 -7.8125 C 88.613281 -4.894531 84.289062 -2.34375 79.1875 -0.15625 C 74.09375 2.03125 68.003906 3.125 60.921875 3.125 Z M 87.15625 -37.484375 C 93.820312 -37.484375 99.5 -39.722656 104.1875 -44.203125 C 108.875 -48.679688 111.84375 -54.566406 113.09375 -61.859375 L 114.34375 -68.734375 L 89.96875 -63.734375 C 85.175781 -62.691406 81.375 -60.921875 78.5625 -58.421875 C 75.757812 -55.921875 74.359375 -52.585938 74.359375 -48.421875 C 74.359375 -45.085938 75.445312 -42.429688 77.625 -40.453125 C 79.8125 -38.472656 82.988281 -37.484375 87.15625 -37.484375 Z M 87.15625 -37.484375 "/></g></g></g><g fill="#00b6a6" fill-opacity="1"><g transform="translate(967.860361, 295.456623)"><g><path d="M 82.78125 3.125 C 70.914062 3.125 60.554688 1.457031 51.703125 -1.875 C 42.847656 -5.207031 35.398438 -8.957031 29.359375 -13.125 C 22.285156 -17.914062 16.144531 -23.328125 10.9375 -29.359375 L 42.484375 -57.796875 C 44.773438 -54.253906 47.484375 -51.128906 50.609375 -48.421875 C 53.316406 -46.128906 56.703125 -43.992188 60.765625 -42.015625 C 64.828125 -40.035156 69.566406 -39.046875 74.984375 -39.046875 C 81.429688 -39.046875 84.65625 -41.335938 84.65625 -45.921875 C 84.65625 -48.003906 83.40625 -50.035156 80.90625 -52.015625 C 78.414062 -53.992188 75.242188 -56.128906 71.390625 -58.421875 C 67.535156 -60.710938 63.367188 -63.265625 58.890625 -66.078125 C 54.410156 -68.890625 50.242188 -72.164062 46.390625 -75.90625 C 42.535156 -79.65625 39.359375 -83.976562 36.859375 -88.875 C 34.359375 -93.769531 33.109375 -99.550781 33.109375 -106.21875 C 33.109375 -112.882812 34.460938 -119.234375 37.171875 -125.265625 C 39.878906 -131.304688 43.890625 -136.617188 49.203125 -141.203125 C 54.515625 -145.785156 61.125 -149.429688 69.03125 -152.140625 C 76.945312 -154.847656 86.21875 -156.203125 96.84375 -156.203125 C 107.46875 -156.203125 116.835938 -154.796875 124.953125 -151.984375 C 133.078125 -149.171875 139.847656 -146.097656 145.265625 -142.765625 C 151.722656 -138.804688 157.242188 -134.332031 161.828125 -129.34375 L 129.65625 -101.84375 C 128.195312 -103.925781 126.320312 -105.90625 124.03125 -107.78125 C 122.15625 -109.445312 119.863281 -110.90625 117.15625 -112.15625 C 114.445312 -113.40625 111.320312 -114.03125 107.78125 -114.03125 C 100.90625 -114.03125 97.46875 -111.738281 97.46875 -107.15625 C 97.46875 -105.070312 98.71875 -102.988281 101.21875 -100.90625 C 103.71875 -98.820312 106.84375 -96.632812 110.59375 -94.34375 C 114.34375 -92.050781 118.457031 -89.445312 122.9375 -86.53125 C 127.414062 -83.613281 131.523438 -80.28125 135.265625 -76.53125 C 139.015625 -72.789062 142.140625 -68.421875 144.640625 -63.421875 C 147.140625 -58.421875 148.390625 -52.691406 148.390625 -46.234375 C 148.390625 -39.773438 147.085938 -33.578125 144.484375 -27.640625 C 141.878906 -21.710938 137.921875 -16.457031 132.609375 -11.875 C 127.304688 -7.289062 120.488281 -3.644531 112.15625 -0.9375 C 103.820312 1.769531 94.03125 3.125 82.78125 3.125 Z M 82.78125 3.125 "/></g></g></g><g fill="#00b6a6" fill-opacity="1"><g transform="translate(1089.048036, 295.456623)"><g><path d="M 66.546875 -218.6875 L 119.65625 -218.6875 L 101.84375 -132.765625 L 103.40625 -132.765625 C 106.53125 -136.929688 110.175781 -140.785156 114.34375 -144.328125 C 117.882812 -147.242188 122.359375 -149.953125 127.765625 -152.453125 C 133.179688 -154.953125 139.429688 -156.203125 146.515625 -156.203125 C 160.679688 -156.203125 172.1875 -151.773438 181.03125 -142.921875 C 189.882812 -134.078125 194.3125 -121.84375 194.3125 -106.21875 C 194.3125 -103.09375 194.101562 -99.914062 193.6875 -96.6875 C 193.269531 -93.457031 192.644531 -90.070312 191.8125 -86.53125 L 173.390625 0 L 120.28125 0 L 137.140625 -79.03125 C 137.554688 -80.695312 137.765625 -82.988281 137.765625 -85.90625 C 137.765625 -91.320312 136.148438 -96.0625 132.921875 -100.125 C 129.703125 -104.1875 124.863281 -106.21875 118.40625 -106.21875 C 111.945312 -106.21875 106.113281 -103.976562 100.90625 -99.5 C 95.695312 -95.019531 92.257812 -88.820312 90.59375 -80.90625 L 73.421875 0 L 20.3125 0 Z M 66.546875 -218.6875 "/></g></g></g><g fill="#00b6a6" fill-opacity="1"><g transform="translate(1255.526425, 295.456623)"><g><path d="M 52.796875 -153.078125 L 105.90625 -153.078125 L 73.421875 0 L 20.3125 0 Z M 85.28125 -168.703125 C 77.375 -168.703125 70.921875 -171.144531 65.921875 -176.03125 C 60.921875 -180.925781 58.421875 -187.019531 58.421875 -194.3125 C 58.421875 -198.476562 59.304688 -202.4375 61.078125 -206.1875 C 62.847656 -209.9375 65.191406 -213.21875 68.109375 -216.03125 C 71.023438 -218.84375 74.507812 -221.03125 78.5625 -222.59375 C 82.625 -224.15625 86.945312 -224.9375 91.53125 -224.9375 C 99.445312 -224.9375 105.90625 -222.488281 110.90625 -217.59375 C 115.90625 -212.695312 118.40625 -206.601562 118.40625 -199.3125 C 118.40625 -195.144531 117.519531 -191.1875 115.75 -187.4375 C 113.976562 -183.695312 111.632812 -180.421875 108.71875 -177.609375 C 105.800781 -174.796875 102.3125 -172.609375 98.25 -171.046875 C 94.1875 -169.484375 89.863281 -168.703125 85.28125 -168.703125 Z M 85.28125 -168.703125 "/></g></g></g></g></g><g clip-path="url(#7838d0dc65)"><path fill="#00b6a6" d="M 883.378906 597.675781 L 795.933594 597.675781 L 797.035156 616 L 822.386719 616 C 847.371094 616 863.535156 636.503906 870.878906 659.21875 L 890.730469 659.21875 L 908 616 L 1135.058594 616 L 1152.328125 659.21875 L 1172.53125 659.21875 C 1178.769531 638.335938 1195.675781 616 1218.828125 616 L 1246.375 616 L 1247.113281 597.675781 L 913.871094 597.675781 C 932.246094 555.183594 974.136719 526.621094 1021.523438 526.621094 C 1064.503906 526.621094 1103.082031 550.0625 1123.664062 586.332031 L 1144.609375 586.332031 C 1124.027344 543.464844 1081.410156 513.445312 1032.179688 510.132812 C 972.292969 505.738281 916.808594 541.628906 895.5 597.675781 L 885.210938 624.058594 L 880.441406 635.777344 C 877.503906 630.644531 873.816406 625.886719 870.152344 621.859375 C 868.316406 619.664062 866.472656 617.832031 864.640625 616 L 876.023438 616 Z M 1162.605469 635.777344 L 1154.523438 616 L 1178.769531 616 C 1176.574219 617.832031 1174.726562 619.664062 1172.894531 621.859375 C 1169.21875 625.886719 1165.554688 630.644531 1162.605469 635.777344 Z M 1162.605469 635.777344 " fill-opacity="1" fill-rule="evenodd"/></g></svg>